<svg version="1.1" id="Layer_1" xmlns="http://www.w3.org/2000/svg" xmlns:xlink="http://www.w3.org/1999/xlink" x="0px" y="0px" viewBox="0 0 791.1 109.9" style="enable-background:new 0 0 791.1 109.9;" xml:space="preserve">
  <path style="fill:#FF8DE5;" d="M503.5,79.6c-9.9,8.3-23.4,7.7-32.3-0.1c-0.5,4-0.1,7.9-0.7,11.7c-1.3,8.3-7.1,15.5-15.2,17.5c-9,2.3-17.1,0.6-23.5-6.7c-3.6-4.1-5.1-8.8-5.1-14.3c0-21.9,0-43.8,0-65.8c0-9.5,4.8-16.7,13.1-20.1c8.7-3.6,18.6-1.8,24.9,4.8c7,7.2,13.8,14.6,20.5,22c1.6,1.8,2.6,1.9,4.3,0c6.7-7.4,13.6-14.7,20.5-22c10.7-11.3,32.9-7.9,37.4,9.4c0.4,1.6,0.6,3.2,0.6,4.8c0,22.6,0.1,45.2,0,67.9c0,11.2-9,20.3-20.3,20.8c-12.5,0.6-22.1-7.3-23.5-19C503.7,87,503.9,83.4,503.5,79.6z"/>
  <path style="fill:#FF8DE5;" d="M726.5,75.4c0,3.9,0.1,7.7,0,11.4c-0.2,14-9.7,23.2-23.5,22.9c-11.5-0.3-20.7-9.5-20.8-21.1c-0.1-22.4-0.1-44.8,0-67.1c0-9.1,4.4-15.7,12.7-19.2c8.9-3.8,17.6-2.9,24.7,4c7.6,7.5,14.6,15.7,21.9,23.5c1.5,1.6,3,3.2,4.7,4.9c1.2-1.8,1-3.6,1.1-5.3c0.2-4.5-0.5-9,0.7-13.4C750.7,5.5,760.6-1,772.1,0.3c10.7,1.1,18.9,10,19,20.7c0.1,22.5,0.1,45,0,67.5c0,8.9-5,16.6-12.9,19.5c-8.9,3.3-17.5,2.6-24.4-4.3c-8.3-8.3-16-17.2-24-25.8C728.9,77,728.3,75.8,726.5,75.4z"/>
  <path style="fill:#FF8DE5;" d="M151.2,84.7c-0.5,6.3-1.2,11.8-4.8,16.5c-5.5,7.2-15.6,10.4-24.8,7.5c-8.9-2.8-14.8-10.6-14.8-19.9c-0.1-21.4-0.1-42.7,0-64.1c0-11.6,9.2-20.8,20.8-21c12.8-0.1,25.6-0.4,38.4,0.1c19.8,0.7,34.3,15.4,34.9,35.3c0.3,9.3-2,17.8-8.1,25c-1.3,1.6-0.2,2.6,0.4,3.7c2.7,4.9,6,9.5,7.3,15.2c2.2,10.2-2.9,20.7-12.3,24.8c-10.2,4.4-21.8,1.3-27.6-7.5C157.4,95.4,154.5,90.2,151.2,84.7z"/>
  <path style="fill:#FF8DE5;" d="M213.3,55.1c0-10.2-0.1-20.3,0-30.5c0.1-11.4,9.1-20.8,20.6-20.9c17.7-0.2,35.3-0.2,53,0c10.5,0.1,19.9,9.1,20.7,19.2c1,12.7-5.9,22.4-17.4,24.4c-0.2,0-0.5,0.1-0.7,0.1c-3.1,0.1-4.3,1.5-3.3,4.6c0.8,2.7,0.3,5.5-0.2,8.2c-0.4,2,0.1,2.2,1.9,2.5c10.2,1.4,16.9,6.9,19.3,17c3.4,13.9-7,27.1-21.3,27.1c-17,0-33.9,0-50.9,0c-12.4,0-21.5-9.1-21.6-21.6c0-0.3,0-0.7,0-1C213.3,74.5,213.3,64.8,213.3,55.1C213.3,55.1,213.3,55.1,213.3,55.1z"/>
  <path style="fill:#FF8DE5;" d="M320,54.9c0-10-0.1-20.1,0-30.1c0.1-11.8,9.3-21,21.1-21.1c17.3-0.1,34.6-0.1,51.9,0c10.7,0,20.3,8.7,21.2,19c1.1,12.7-5.8,22.5-17.6,24.6c-0.8,0.1-1.6,0.5-2.4,0.5c-1.6,0-2.1,0.4-1.7,2.3c0.8,3.4,0.8,6.9,0,10.2c-0.4,1.9,0.1,2.1,1.7,2.3c8.5,1,15.1,5.2,18.3,13.3c5.9,14.8-3.5,30.6-19.9,30.9c-17.1,0.2-34.2,0.1-51.2,0c-12.2,0-21.3-9.2-21.4-21.5c0-0.3,0-0.7,0-1C320,74.6,320,64.7,320,54.9C320,54.9,320,54.9,320,54.9z"/>
  <path style="fill:#FF8DE5;" d="M555.5,88.5c-0.1-6.4,1.9-10.9,4.4-15.2c11.4-19.9,23-39.7,34.3-59.6c4.7-8.3,11.1-13.4,20.9-13.4c8.4,0,15,3.6,19.2,10.8C646.7,32.5,659,54,671.3,75.5c7.7,13.4,1.3,30.9-14.8,33.9c-8.6,1.6-19.1-2.1-22.8-10c-3.5-7.4-8.2-10.5-16.3-9.2c-4.2,0.7-8.5,0.2-12.8,0.1c-2.1-0.1-3.4,0.7-4.4,2.6c-1.8,3.4-3.5,7-6.3,9.9c-6.5,6.9-16.4,8.8-25.4,5.1C560.5,104.5,555.5,96.7,555.5,88.5z"/>
  <path style="fill:#FF8DE5;" d="M0,56.8C0,46,0,35.3,0,24.6C0.1,13.2,9.2,3.9,20.7,3.7c17.6-0.2,35.3-0.2,53,0c10.6,0.1,20.1,9.3,20.7,19.6c0.7,13.1-6.2,22.3-18.1,24.1c-2.7,0.4-4,0.9-3.4,4.4c2.8,15.2-9.7,26.4-22.5,25.5c-5.9-0.4-6,0-5.9,5.7c0.1,6.4-0.5,12.6-4.5,18c-5.5,7.4-15.8,10.7-25.1,7.6c-9-3-14.6-10.6-14.7-20C0,78,0,67.4,0,56.8z"/>
</svg>
