<svg version="1.1" id="Layer_1" xmlns="http://www.w3.org/2000/svg" xmlns:xlink="http://www.w3.org/1999/xlink" x="0px" y="0px" viewBox="0 0 791.1 109.9" style="enable-background:new 0 0 791.1 109.9;" xml:space="preserve">
  <path style="fill:#FF8DE5;" d="M0,56.8C0,46,0,35.3,0,24.6C0.1,13.2,9.2,3.9,20.7,3.7c17.6-0.2,35.3-0.2,53,0c10.6,0.1,20.1,9.3,20.7,19.6c0.7,13.1-6.2,22.3-18.1,24.1c-2.7,0.4-4,0.9-3.4,4.4c2.8,15.2-9.7,26.4-22.5,25.5c-5.9-0.4-6,0-5.9,5.7c0.1,6.4-0.5,12.6-4.5,18c-5.5,7.4-15.8,10.7-25.1,7.6c-9-3-14.6-10.6-14.7-20C0,78,0,67.4,0,56.8z"/>
</svg>
